<svg width="100" height="100" viewBox="0 0 100 100" fill="none" xmlns="http://www.w3.org/2000/svg">
<path fill-rule="evenodd" clip-rule="evenodd" d="M13.8841 90.0032L5.85938 0H94.0379L86.0047 89.9884L49.8953 100L13.8841 90.0032Z" fill="#0071BC"/>
<path fill-rule="evenodd" clip-rule="evenodd" d="M50.0227 92.343L79.1646 84.326L85.9925 7.49561H50.0227V92.343Z" fill="#29ABE2"/>
<path fill-rule="evenodd" clip-rule="evenodd" d="M24.2278 40.5621L25.1945 51.5845L50.0227 40.5621V29.522L24.2278 40.5621Z" fill="#B3B3B3"/>
<path fill-rule="evenodd" clip-rule="evenodd" d="M77.5207 17.7373L50.0227 29.5222V40.5623L76.5726 28.7596L77.5207 17.7373Z" fill="#E6E6E6"/>
<path fill-rule="evenodd" clip-rule="evenodd" d="M50.0227 69.4017L49.9374 69.4145L37.6244 66.1078L36.82 57.3159H25.7383L27.2848 74.6364L49.935 80.9079L50.0227 80.8872V69.4017Z" fill="#E6E6E6"/>
<path fill-rule="evenodd" clip-rule="evenodd" d="M50.0227 40.562V51.5843H63.5034L62.2782 65.9951L50.0227 69.4112V80.8958L72.5977 74.6243L75.5705 40.562H50.0227Z" fill="white"/>
<path fill-rule="evenodd" clip-rule="evenodd" d="M50.0227 40.562H24.2278L25.1945 51.5843H50.0227V40.562Z" fill="#E6E6E6"/>
<path fill-rule="evenodd" clip-rule="evenodd" d="M50.0227 28.7596V17.7373H49.9107H22.2681L23.2462 28.7596H50.0227Z" fill="#E6E6E6"/>
<path fill-rule="evenodd" clip-rule="evenodd" d="M50.0227 17.7373V28.6214V28.7596H76.5726L77.5207 17.7373H50.0227Z" fill="white"/>
</svg>
