<svg width="30" height="30" viewBox="0 0 30 30" fill="none" xmlns="http://www.w3.org/2000/svg">
<path d="M10.0391 30C12.7991 30 15.0391 27.76 15.0391 25V20H10.0391C7.27906 20 5.03906 22.24 5.03906 25C5.03906 27.76 7.27906 30 10.0391 30Z" fill="white"/>
<path d="M5.03906 15C5.03906 12.24 7.27906 10 10.0391 10H15.0391V20H10.0391C7.27906 20 5.03906 17.76 5.03906 15Z" fill="white"/>
<path d="M5.03906 5C5.03906 2.24 7.27906 0 10.0391 0H15.0391V10H10.0391C7.27906 10 5.03906 7.76 5.03906 5Z" fill="white"/>
<path d="M15.0391 0H20.0391C22.7991 0 25.0391 2.24 25.0391 5C25.0391 7.76 22.7991 10 20.0391 10H15.0391V0Z" fill="white"/>
<path d="M25.0391 15C25.0391 17.76 22.7991 20 20.0391 20C17.2791 20 15.0391 17.76 15.0391 15C15.0391 12.24 17.2791 10 20.0391 10C22.7991 10 25.0391 12.24 25.0391 15Z" fill="white"/>
</svg>
