<svg width="100" height="100" viewBox="0 0 100 100" fill="none" xmlns="http://www.w3.org/2000/svg">
<mask id="mask0_403_262" style="mask-type:luminance" maskUnits="userSpaceOnUse" x="1" y="1" width="98" height="98">
<path d="M98.8281 1.36719H1.17188V98.6434H98.8281V1.36719Z" fill="white"/>
</mask>
<g mask="url(#mask0_403_262)">
<path fill-rule="evenodd" clip-rule="evenodd" d="M96.6137 45.6711L54.1414 3.20193C51.6973 0.755606 47.7299 0.755606 45.2824 3.20193L36.4631 12.0213L47.651 23.209C50.251 22.3307 53.232 22.9197 55.3047 24.9926C57.3871 27.0781 57.9721 30.0848 57.0723 32.6934L67.8545 43.4756C70.4631 42.5768 73.4728 43.1586 75.5562 45.2451C78.468 48.1559 78.468 52.8734 75.5562 55.7861C72.6435 58.6988 67.926 58.6988 65.0121 55.7861C62.8219 53.5938 62.2809 50.377 63.3898 47.6787L53.3344 37.6234L53.3334 64.0846C54.0432 64.4369 54.7135 64.9055 55.3047 65.4945C58.2164 68.4051 58.2164 73.1228 55.3047 76.0377C52.392 78.9494 47.6723 78.9494 44.7639 76.0377C41.8521 73.1228 41.8521 68.4051 44.7639 65.4945C45.4832 64.7762 46.3156 64.233 47.2037 63.868V37.1602C46.3156 36.7973 45.4842 36.2572 44.7639 35.5336C42.5576 33.3305 42.0271 30.0934 43.1574 27.3844L32.1299 16.3546L3.00767 45.4746C0.560288 47.923 0.560288 51.8904 3.00767 54.3367L45.4799 96.8068C47.9252 99.2531 51.8914 99.2531 54.3398 96.8068L96.6137 54.5342C99.06 52.0867 99.06 48.1174 96.6137 45.6711Z" fill="#DE4C36"/>
</g>
</svg>
