<svg width="30" height="30" viewBox="0 0 30 30" fill="none" xmlns="http://www.w3.org/2000/svg">
<g clip-path="url(#clip0_32_265)">
<path fill-rule="evenodd" clip-rule="evenodd" d="M15.0001 0.703125C6.91102 0.703125 0.351562 7.26135 0.351562 15.3517C0.351562 21.8238 4.54882 27.3147 10.3692 29.2516C11.1012 29.3873 11.37 28.9339 11.37 28.547C11.37 28.1977 11.3564 27.0438 11.3501 25.8197C7.27488 26.7059 6.41496 24.0914 6.41496 24.0914C5.74859 22.3982 4.78848 21.948 4.78848 21.948C3.45942 21.0388 4.88866 21.0575 4.88866 21.0575C6.35965 21.1608 7.1342 22.567 7.1342 22.567C8.44066 24.8065 10.561 24.1591 11.397 23.7848C11.5284 22.838 11.908 22.1918 12.327 21.826C9.0733 21.4556 5.65302 20.1996 5.65302 14.5866C5.65302 12.9873 6.22523 11.6805 7.16232 10.6547C7.01021 10.2858 6.50883 8.79586 7.30424 6.77813C7.30424 6.77813 8.5343 6.38443 11.3336 8.27971C12.5021 7.9551 13.7552 7.79232 15.0001 7.78676C16.245 7.79232 17.4991 7.9551 18.6698 8.27971C21.4657 6.38443 22.6941 6.77813 22.6941 6.77813C23.4914 8.79586 22.9898 10.2858 22.8377 10.6547C23.7769 11.6805 24.3453 12.9873 24.3453 14.5866C24.3453 20.2129 20.9184 21.4517 17.6565 21.8143C18.182 22.2689 18.6502 23.1604 18.6502 24.5271C18.6502 26.4871 18.6332 28.0645 18.6332 28.547C18.6332 28.9368 18.8968 29.3936 19.6393 29.2497C25.4565 27.3106 29.6484 21.8216 29.6484 15.3517C29.6484 7.26135 23.09 0.703125 15.0001 0.703125ZM5.83792 21.5703C5.80566 21.6431 5.69116 21.6649 5.58686 21.6149C5.48061 21.5671 5.42094 21.4679 5.45538 21.3949C5.48692 21.32 5.60166 21.2991 5.70766 21.3493C5.81415 21.3971 5.87479 21.4973 5.83792 21.5703ZM6.55846 22.2132C6.48861 22.278 6.35203 22.2479 6.25939 22.1456C6.16354 22.0434 6.14561 21.9069 6.21645 21.8411C6.28846 21.7764 6.42094 21.8067 6.51697 21.9088C6.61283 22.0121 6.63146 22.1477 6.55846 22.2132ZM7.05281 23.0358C6.96305 23.0982 6.81627 23.0397 6.72557 22.9095C6.6358 22.7792 6.6358 22.623 6.7275 22.5604C6.81844 22.4978 6.96305 22.5541 7.05498 22.6834C7.14451 22.8158 7.14451 22.972 7.05281 23.0358ZM7.88877 23.9886C7.8085 24.0771 7.63752 24.0533 7.51231 23.9325C7.38422 23.8144 7.34859 23.6467 7.4291 23.5582C7.51037 23.4694 7.68234 23.4945 7.8085 23.6143C7.93559 23.7322 7.97443 23.901 7.88877 23.9886ZM8.96924 24.3102C8.93385 24.4249 8.76914 24.4771 8.6032 24.4283C8.43756 24.3781 8.3291 24.2437 8.36256 24.1277C8.39701 24.0123 8.56248 23.9579 8.72959 24.0101C8.895 24.0601 9.00369 24.1935 8.96924 24.3102ZM10.1988 24.4466C10.203 24.5674 10.0623 24.6676 9.88811 24.6698C9.71297 24.6737 9.57129 24.5759 9.56936 24.457C9.56936 24.335 9.70693 24.2358 9.88207 24.2329C10.0562 24.2295 10.1988 24.3265 10.1988 24.4466ZM11.4068 24.4003C11.4277 24.5182 11.3066 24.6393 11.1336 24.6715C10.9636 24.7025 10.8062 24.6298 10.7846 24.5129C10.7635 24.3921 10.8867 24.271 11.0565 24.2397C11.2297 24.2096 11.3847 24.2805 11.4068 24.4003Z" fill="white"/>
</g>
<defs>
<clipPath id="clip0_32_265">
<rect width="30" height="30" fill="white"/>
</clipPath>
</defs>
</svg>
