<svg width="100" height="100" viewBox="0 0 100 100" fill="none" xmlns="http://www.w3.org/2000/svg">
<path fill-rule="evenodd" clip-rule="evenodd" d="M50.0004 2.34375C23.0367 2.34375 1.17188 24.2045 1.17188 51.1723C1.17188 72.7461 15.1627 91.049 34.5639 97.5055C37.0041 97.9576 37.9 96.4463 37.9 95.1566C37.9 93.9922 37.8547 90.1459 37.8338 86.0658C24.2496 89.0195 21.3832 80.3047 21.3832 80.3047C19.162 74.6607 15.9616 73.16 15.9616 73.16C11.5314 70.1295 16.2955 70.1918 16.2955 70.1918C21.1988 70.5361 23.7807 75.2234 23.7807 75.2234C28.1355 82.6883 35.2033 80.5303 37.9898 79.2826C38.4279 76.1268 39.6934 73.9727 41.0898 72.7533C30.2443 71.5186 18.8434 67.3318 18.8434 48.6221C18.8434 43.291 20.7508 38.9352 23.8744 35.5158C23.3674 34.2859 21.6961 29.3195 24.3475 22.5938C24.3475 22.5938 28.4477 21.2814 37.7787 27.599C41.6736 26.517 45.8508 25.9744 50.0004 25.9559C54.15 25.9744 58.3305 26.517 62.2326 27.599C71.5523 21.2814 75.6469 22.5938 75.6469 22.5938C78.3047 29.3195 76.6326 34.2859 76.1256 35.5158C79.2564 38.9352 81.151 43.291 81.151 48.6221C81.151 67.3762 69.7281 71.5057 58.8551 72.7145C60.6066 74.2297 62.1672 77.2014 62.1672 81.7568C62.1672 88.2902 62.1105 93.5482 62.1105 95.1566C62.1105 96.4561 62.9895 97.9785 65.4645 97.499C84.8551 91.0354 98.8281 72.7387 98.8281 51.1723C98.8281 24.2045 76.9666 2.34375 50.0004 2.34375ZM19.4597 71.901C19.3522 72.1436 18.9705 72.2164 18.6229 72.0498C18.2687 71.8904 18.0698 71.5598 18.1846 71.3164C18.2897 71.0666 18.6722 70.9971 19.0255 71.1645C19.3805 71.3236 19.5826 71.6576 19.4597 71.901ZM21.8615 74.0441C21.6287 74.26 21.1734 74.1598 20.8646 73.8186C20.5451 73.4781 20.4854 73.0229 20.7215 72.8037C20.9615 72.5879 21.4031 72.6889 21.7232 73.0293C22.0428 73.3738 22.1049 73.8258 21.8615 74.0441ZM23.5094 76.7861C23.2102 76.9939 22.7209 76.799 22.4186 76.3648C22.1193 75.9307 22.1193 75.41 22.425 75.2014C22.7281 74.9928 23.2102 75.1803 23.5166 75.6113C23.815 76.0527 23.815 76.5734 23.5094 76.7861ZM26.2959 79.9619C26.0283 80.257 25.4584 80.1777 25.041 79.775C24.6141 79.3812 24.4953 78.8225 24.7637 78.5273C25.0346 78.2314 25.6078 78.3148 26.0283 78.7143C26.452 79.1072 26.5814 79.6699 26.2959 79.9619ZM29.8975 81.034C29.7795 81.4164 29.2305 81.5902 28.6773 81.4277C28.1252 81.2604 27.7637 80.8123 27.8752 80.4258C27.99 80.041 28.5416 79.8598 29.0986 80.0338C29.65 80.2002 30.0123 80.6449 29.8975 81.034ZM33.9961 81.4887C34.01 81.8914 33.541 82.2252 32.9604 82.2326C32.3766 82.2455 31.9043 81.9197 31.8979 81.5234C31.8979 81.1168 32.3564 80.7859 32.9402 80.7764C33.5207 80.765 33.9961 81.0885 33.9961 81.4887ZM38.0227 81.3344C38.0922 81.7273 37.6887 82.1309 37.1121 82.2383C36.5453 82.3418 36.0207 82.0992 35.9486 81.7096C35.8783 81.3068 36.2891 80.9033 36.8551 80.799C37.4324 80.6988 37.949 80.935 38.0227 81.3344Z" fill="#161614"/>
</svg>
