<svg width="100" height="100" viewBox="0 0 100 100" fill="none" xmlns="http://www.w3.org/2000/svg">
<path fill-rule="evenodd" clip-rule="evenodd" d="M13.8838 90.0036L5.85938 0H94.0343L86.0013 89.9895L49.8929 100L13.8838 90.0036Z" fill="#E44D26"/>
<path fill-rule="evenodd" clip-rule="evenodd" d="M49.9468 92.3487L79.1242 84.2596L85.9889 7.35938H49.9468V92.3487Z" fill="#F16529"/>
<path d="M35.3399 40.7403H49.9469V51.7788H25.2446L22.2673 18.3979H49.9469V29.4366H34.3311L35.3399 40.7403Z" fill="#EBEBEB"/>
<path d="M49.8985 69.4216L49.9469 69.4087V80.8935L49.896 80.9076L27.2844 74.6304L25.7378 57.2982H36.8188L37.6047 66.102L49.8985 69.4216Z" fill="#EBEBEB"/>
<path d="M49.9087 18.3979H77.5605L76.5721 29.4366H49.9087V18.3979Z" fill="white"/>
<path d="M49.9087 51.7788V40.7403H75.5677L75.2984 43.7045L72.5384 74.6304L49.9087 80.9022V69.4179L62.2202 66.095L63.5015 51.7788H49.9087Z" fill="white"/>
</svg>
