<svg width="30" height="30" viewBox="0 0 30 30" fill="none" xmlns="http://www.w3.org/2000/svg">
<g clip-path="url(#clip0_32_269)">
<mask id="mask0_32_269" style="mask-type:luminance" maskUnits="userSpaceOnUse" x="0" y="0" width="30" height="30">
<path d="M29.6484 0.410156H0.351562V29.593H29.6484V0.410156Z" fill="white"/>
</mask>
<g mask="url(#mask0_32_269)">
<path fill-rule="evenodd" clip-rule="evenodd" d="M28.9843 13.7013L16.2426 0.96058C15.5093 0.226682 14.3191 0.226682 13.5849 0.96058L10.9391 3.60639L14.2955 6.96269C15.0755 6.6992 15.9698 6.87592 16.5916 7.49777C17.2163 8.12344 17.3918 9.02543 17.1218 9.80801L20.3565 13.0427C21.1391 12.773 22.042 12.9476 22.667 13.5735C23.5406 14.4468 23.5406 15.862 22.667 16.7358C21.7932 17.6096 20.378 17.6096 19.5038 16.7358C18.8467 16.0781 18.6844 15.1131 19.0171 14.3036L16.0005 11.287L16.0002 19.2254C16.2131 19.3311 16.4142 19.4716 16.5916 19.6484C17.4651 20.5215 17.4651 21.9369 16.5916 22.8113C15.7178 23.6848 14.3018 23.6848 13.4293 22.8113C12.5558 21.9369 12.5558 20.5215 13.4293 19.6484C13.6451 19.4329 13.8949 19.2699 14.1613 19.1604V11.148C13.8949 11.0392 13.6454 10.8772 13.4293 10.6601C12.7675 9.99914 12.6083 9.02801 12.9474 8.21531L9.63913 4.90639L0.902469 13.6424C0.168253 14.3769 0.168253 15.5671 0.902469 16.301L13.6441 29.0421C14.3777 29.7759 15.5676 29.7759 16.3021 29.0421L28.9843 16.3603C29.7182 15.626 29.7182 14.4352 28.9843 13.7013Z" fill="white"/>
</g>
</g>
<defs>
<clipPath id="clip0_32_269">
<rect width="30" height="30" fill="white"/>
</clipPath>
</defs>
</svg>
