<svg width="100" height="100" viewBox="0 0 100 100" fill="none" xmlns="http://www.w3.org/2000/svg">
<ellipse cx="50" cy="49.8917" rx="48.8281" ry="25.6729" fill="url(#paint0_radial_407_135)"/>
<ellipse cx="50" cy="49.8915" rx="46.9208" ry="23.7656" fill="#6181B6"/>
<path fill-rule="evenodd" clip-rule="evenodd" d="M59.4986 57.5974L61.8256 45.6192C62.3596 42.9108 61.9019 40.889 60.5286 39.6301C59.1934 38.4094 56.9046 37.7991 53.5477 37.7991H49.5041L50.6485 31.8481C50.6866 31.6193 50.6485 31.3904 50.4959 31.1996C50.3433 31.0089 50.1526 30.9326 49.9237 30.9326H44.3542C43.9728 30.9326 43.6676 31.1996 43.5913 31.543L41.1118 44.2459C40.8829 42.7963 40.3488 41.5756 39.4333 40.5838C37.793 38.7146 35.2371 37.7609 31.7657 37.7609H21.0464C20.665 37.7609 20.3598 38.028 20.2835 38.3713L15.2863 64.1586C15.2481 64.3875 15.2863 64.6164 15.4388 64.8071C15.5914 64.9979 15.7822 65.0742 16.011 65.0742H21.6186C22.0001 65.0742 22.3053 64.8071 22.3816 64.4638L23.6023 58.2458H27.7603C29.9347 58.2458 31.8039 58.017 33.2153 57.5592C34.7031 57.0633 36.0382 56.2622 37.2208 55.1559C38.1744 54.2786 38.9755 53.2867 39.5859 52.2186L38.5941 57.3685C38.5559 57.5974 38.5941 57.8262 38.7466 58.017C38.8992 58.2077 39.09 58.284 39.3188 58.284H44.8883C45.2698 58.284 45.5749 58.017 45.6512 57.6736L48.3978 43.5593H52.2125C53.8528 43.5593 54.3106 43.8644 54.4632 44.017C54.5776 44.1315 54.8065 44.5892 54.5395 46.0007L52.327 57.4066C52.2888 57.6355 52.327 57.8644 52.4796 58.0551C52.6321 58.2458 52.8229 58.3221 53.0518 58.3221H58.7738C59.1171 58.2077 59.4223 57.9407 59.4986 57.5974V57.5974ZM33.7112 47.6791C33.3679 49.472 32.7194 50.769 31.7657 51.4938C30.8121 52.2186 29.248 52.6001 27.1881 52.6001H24.7086L26.5015 43.3685H29.7058C32.0709 43.3685 33.0246 43.8644 33.4061 44.2841C33.902 44.8944 34.0164 46.077 33.7112 47.6791V47.6791Z" fill="white"/>
<path fill-rule="evenodd" clip-rule="evenodd" d="M83.3023 40.5836C81.662 38.7144 79.1061 37.7607 75.6348 37.7607H64.8392C64.4577 37.7607 64.1525 38.0278 64.0762 38.3711L59.079 64.1203C59.0408 64.3492 59.079 64.5781 59.2316 64.7688C59.3842 64.9595 59.5749 65.0358 59.8038 65.0358H65.4114C65.7928 65.0358 66.098 64.7688 66.1743 64.4255L67.395 58.2075H71.553C73.7274 58.2075 75.5966 57.9786 77.0081 57.5209C78.4958 57.025 79.8309 56.2239 81.0135 55.1176C82.0053 54.2021 82.8445 53.1721 83.4549 52.0659C84.0652 50.9596 84.523 49.7389 84.79 48.4037C85.4385 45.085 84.9426 42.491 83.3023 40.5836V40.5836ZM77.4658 47.679C77.1225 49.4719 76.474 50.7689 75.5203 51.4937C74.5666 52.2184 73.0026 52.5999 70.9427 52.5999H68.4631L70.256 43.3683H73.4604C75.8255 43.3683 76.7792 43.8643 77.1606 44.2839C77.6947 44.8942 77.8091 46.0768 77.4658 47.679V47.679Z" fill="white"/>
<path fill-rule="evenodd" clip-rule="evenodd" d="M29.7058 42.6052C31.842 42.6052 33.2535 42.9866 33.9783 43.7877C34.7031 44.5888 34.8557 45.924 34.4742 47.8313C34.0927 49.8149 33.3298 51.2645 32.2235 52.1038C31.1172 52.943 29.4388 53.3626 27.1881 53.3626H23.793L25.8911 42.6052H29.7058V42.6052ZM16.0492 64.2726H21.6568L22.9919 57.4443H27.7985C29.9347 57.4443 31.6513 57.2155 33.0246 56.7577C34.3979 56.2999 35.6186 55.5751 36.763 54.507C37.7167 53.6296 38.4796 52.676 39.0518 51.646C39.624 50.616 40.0436 49.4716 40.2725 48.2128C40.8829 45.161 40.4251 42.7959 38.9374 41.0793C37.4496 39.3627 35.0845 38.5234 31.842 38.5234H21.0464L16.0492 64.2726V64.2726Z" fill="#000004"/>
<path fill-rule="evenodd" clip-rule="evenodd" d="M44.3924 31.6953H49.9619L48.6267 38.5236H53.5858C56.7139 38.5236 58.8501 39.0577 60.0327 40.1639C61.2152 41.2702 61.5585 43.025 61.1008 45.4664L58.7738 57.4445H53.1281L55.3406 46.0386C55.6076 44.7416 55.4932 43.8642 55.0735 43.4064C54.6539 42.9487 53.7003 42.6816 52.2888 42.6816H47.8256L44.9646 57.4445H39.3951L44.3924 31.6953V31.6953Z" fill="#000004"/>
<path fill-rule="evenodd" clip-rule="evenodd" d="M73.4604 42.6052C75.5966 42.6052 77.0081 42.9866 77.7328 43.7877C78.4576 44.5888 78.6102 45.924 78.2288 47.8313C77.8473 49.8149 77.0843 51.2645 75.9781 52.1038C74.8718 52.943 73.1934 53.3626 70.9427 53.3626H67.5476L69.6457 42.6052H73.4604V42.6052ZM59.8038 64.2726H65.4114L66.7465 57.4443H71.553C73.6893 57.4443 75.4059 57.2155 76.7792 56.7577C78.1525 56.2999 79.3732 55.5751 80.5176 54.507C81.4713 53.6296 82.2342 52.676 82.8064 51.646C83.3786 50.616 83.7982 49.4716 84.0271 48.2128C84.6374 45.161 84.1797 42.7959 82.692 41.0793C81.2042 39.3627 78.8391 38.5234 75.5966 38.5234H64.801L59.8038 64.2726V64.2726Z" fill="#000004"/>
<defs>
<radialGradient id="paint0_radial_407_135" cx="0" cy="0" r="1" gradientUnits="userSpaceOnUse" gradientTransform="translate(30.4885 33.2473) scale(138.495 72.8181)">
<stop stop-color="white"/>
<stop offset="0.5" stop-color="#4C6B97"/>
<stop offset="1" stop-color="#231F20"/>
</radialGradient>
</defs>
</svg>
