<svg width="30" height="30" viewBox="0 0 30 30" fill="none" xmlns="http://www.w3.org/2000/svg">
<path d="M5.9861 3.85046C5.9861 7.87021 8.48258 10.2821 13.4755 11.5515L18.7647 12.7785C23.5037 13.8787 26.381 16.5867 26.381 20.9873C26.4233 22.8914 25.7886 24.7531 24.6462 26.2764C24.6462 21.8759 22.3613 19.5063 16.9029 18.0677L11.6984 16.8829C7.50938 15.952 4.29358 13.7094 4.29358 8.92804C4.29358 7.10857 4.88596 5.28911 5.9861 3.85046Z" fill="white"/>
<path d="M21.388 19.8872C23.6306 21.3258 24.6462 23.3568 24.6462 26.2764C22.7421 28.6883 19.484 30 15.6335 30C9.15955 30 4.54742 26.7842 3.57422 21.2412H9.79425C10.5982 23.78 12.7139 24.9647 15.5911 24.9647C19.0185 25.0071 21.3457 23.1453 21.388 19.8872ZM5.98607 3.80818C7.80553 1.43865 10.9367 0 14.7449 0C21.388 0 25.1962 3.51199 26.1694 8.42031H20.161C19.484 6.47391 17.8337 4.95063 14.8295 4.95063C11.5714 4.99295 9.37112 6.85473 9.24418 9.81664C7.06379 8.61418 5.90144 6.26234 5.98607 3.80818Z" fill="white"/>
</svg>
