<svg width="100" height="100" viewBox="0 0 100 100" fill="none" xmlns="http://www.w3.org/2000/svg">
<path d="M19.9536 12.835C19.9536 26.2341 28.2752 34.2736 44.9184 38.5049L62.5488 42.5952C78.3457 46.2623 87.9367 55.2891 87.9367 69.9577C88.0778 76.3046 85.9621 82.5106 82.1539 87.5881C82.1539 72.9196 74.5376 65.0211 56.3429 60.2256L38.9945 56.2764C25.0312 53.1735 14.3119 45.6981 14.3119 29.7602C14.3119 23.6953 16.2865 17.6304 19.9536 12.835Z" fill="#F04939"/>
<path d="M71.2935 66.2906C78.7688 71.086 82.1538 77.8561 82.1538 87.5882C75.8069 95.6276 64.9465 100 52.1115 100C30.5318 100 15.1581 89.2807 11.9141 70.8039H32.6475C35.3273 79.2666 42.3795 83.2158 51.9705 83.2158C63.395 83.3568 71.1524 77.1509 71.2935 66.2906ZM19.9536 12.6939C26.0184 4.79549 36.4557 0 49.1496 0C71.2935 0 83.9874 11.7066 87.2314 28.0677H67.2032C64.9465 21.5797 59.4458 16.5021 49.4317 16.5021C38.5713 16.6432 31.2371 22.8491 30.8139 32.7221C23.546 28.7139 19.6715 20.8745 19.9536 12.6939Z" fill="#F37368"/>
</svg>
