<svg width="100" height="100" viewBox="0 0 100 100" fill="none" xmlns="http://www.w3.org/2000/svg">
<path fill-rule="evenodd" clip-rule="evenodd" d="M83.4597 47.7903C84.6801 49.0107 84.6801 50.9893 83.4597 52.2097L52.2097 83.4597C50.9893 84.6801 49.0107 84.6801 47.7903 83.4597C46.5699 82.2393 46.5699 80.2607 47.7903 79.0403L79.0403 47.7903C80.2607 46.5699 82.2393 46.5699 83.4597 47.7903Z" fill="#09090B"/>
<path fill-rule="evenodd" clip-rule="evenodd" d="M77.2097 13.4153C78.4301 14.6357 78.4301 16.6143 77.2097 17.8347L17.8347 77.2097C16.6143 78.4301 14.6357 78.4301 13.4153 77.2097C12.1949 75.9893 12.1949 74.0107 13.4153 72.7903L72.7903 13.4153C74.0107 12.1949 75.9893 12.1949 77.2097 13.4153Z" fill="#09090B"/>
</svg>
