<svg width="30" height="30" viewBox="0 0 30 30" fill="none" xmlns="http://www.w3.org/2000/svg">
<path d="M22.3313 8.12343C22.3133 8.015 22.2229 7.94271 22.1325 7.94271C22.0422 7.94271 20.3253 7.8162 20.3253 7.8162C20.3253 7.8162 19.1325 6.62343 18.988 6.49693C18.8614 6.37042 18.5904 6.40657 18.5 6.44271C18.4819 6.44271 18.2289 6.515 17.8313 6.64151C17.4337 5.48488 16.7289 4.41861 15.4819 4.41861C15.4458 4.41861 15.4096 4.41861 15.3735 4.41861C15.012 3.94873 14.5783 3.74994 14.1988 3.74994C11.2892 3.74994 9.89759 7.38247 9.46386 9.22584C8.34337 9.56922 7.53012 9.82223 7.43976 9.85837C6.80723 10.0572 6.78916 10.0752 6.71687 10.6716C6.64458 11.1054 5 23.8463 5 23.8463L17.8313 26.2499L24.7892 24.7499C24.7892 24.7499 22.3494 8.24994 22.3313 8.12343ZM17.1084 6.85837C16.7831 6.96681 16.4217 7.07524 16.0241 7.20175C16.0241 7.12946 16.0241 7.05717 16.0241 6.96681C16.0241 6.24391 15.9157 5.6656 15.7711 5.21379C16.4217 5.28608 16.8373 6.00898 17.1084 6.85837ZM14.9759 5.3403C15.1566 5.79211 15.2651 6.42464 15.2651 7.29211C15.2651 7.32825 15.2651 7.38247 15.2651 7.41861C14.5602 7.63548 13.7831 7.87042 13.0241 8.10536C13.4578 6.46078 14.2711 5.64753 14.9759 5.3403ZM14.1084 4.52705C14.2349 4.52705 14.3614 4.56319 14.488 4.65355C13.5663 5.08729 12.5542 6.1897 12.1386 8.39452C11.5241 8.59331 10.9277 8.77404 10.3675 8.93669C10.8554 7.25596 12.0301 4.52705 14.1084 4.52705Z" fill="white"/>
<path d="M22.132 7.943C22.0417 7.943 20.3248 7.8165 20.3248 7.8165C20.3248 7.8165 19.132 6.62373 18.9874 6.49722C18.9332 6.443 18.879 6.42493 18.8067 6.40686L17.8308 26.2502L24.7886 24.7502C24.7886 24.7502 22.3489 8.25023 22.3308 8.1418C22.3127 8.01529 22.2043 7.96108 22.132 7.943Z" fill="white"/>
<path d="M15.464 11.7922L14.6146 14.3404C14.6146 14.3404 13.8555 13.9428 12.9519 13.9428C11.5965 13.9428 11.5423 14.7922 11.5423 15.0091C11.5423 16.1657 14.5784 16.6175 14.5784 19.3464C14.5784 21.497 13.223 22.8705 11.3796 22.8705C9.1748 22.8705 8.05432 21.497 8.05432 21.497L8.65071 19.5452C8.65071 19.5452 9.80733 20.5392 10.7832 20.5392C11.4158 20.5392 11.6869 20.0332 11.6869 19.6717C11.6869 18.1537 9.19288 18.0814 9.19288 15.5874C9.19288 13.491 10.6929 11.4489 13.7471 11.4489C14.8856 11.4489 15.464 11.7922 15.464 11.7922Z" fill="#2B2B2B"/>
</svg>
