<svg width="100" height="100" viewBox="0 0 100 100" fill="none" xmlns="http://www.w3.org/2000/svg">
<path d="M74.4377 27.0783C74.3775 26.7169 74.0763 26.4759 73.7751 26.4759C73.4739 26.4759 67.751 26.0542 67.751 26.0542C67.751 26.0542 63.7751 22.0783 63.2932 21.6566C62.8715 21.2349 61.9679 21.3554 61.6667 21.4759C61.6064 21.4759 60.763 21.7169 59.4377 22.1386C58.1124 18.2831 55.763 14.7289 51.6064 14.7289C51.4859 14.7289 51.3655 14.7289 51.245 14.7289C50.0401 13.1627 48.5944 12.5 47.3293 12.5C37.6305 12.5 32.992 24.6084 31.5462 30.753C27.8112 31.8976 25.1004 32.741 24.7992 32.8614C22.6908 33.5241 22.6305 33.5843 22.3895 35.5723C22.1486 37.0181 16.6667 79.488 16.6667 79.488L59.4377 87.5L82.6305 82.5C82.6305 82.5 74.498 27.5 74.4377 27.0783ZM57.0281 22.8614C55.9438 23.2229 54.7389 23.5843 53.4136 24.006C53.4136 23.7651 53.4136 23.5241 53.4136 23.2229C53.4136 20.8133 53.0522 18.8855 52.5703 17.3795C54.7389 17.6205 56.1245 20.0301 57.0281 22.8614ZM49.9197 17.8012C50.5221 19.3072 50.8835 21.4157 50.8835 24.3072C50.8835 24.4277 50.8835 24.6084 50.8835 24.7289C48.5341 25.4518 45.9438 26.2349 43.4136 27.0181C44.8594 21.5361 47.5703 18.8253 49.9197 17.8012ZM47.0281 15.0904C47.4498 15.0904 47.8715 15.2108 48.2932 15.512C45.2209 16.9578 41.8474 20.6325 40.4618 27.9819C38.4136 28.6446 36.4257 29.247 34.5582 29.7892C36.1847 24.1867 40.1004 15.0904 47.0281 15.0904Z" fill="#95BF47"/>
<path d="M73.7734 26.4769C73.4722 26.4769 67.7493 26.0552 67.7493 26.0552C67.7493 26.0552 63.7734 22.0793 63.2915 21.6577C63.1107 21.4769 62.93 21.4167 62.689 21.3564L59.436 87.501L82.6288 82.501C82.6288 82.501 74.4963 27.501 74.436 27.1396C74.3758 26.7179 74.0144 26.5372 73.7734 26.4769Z" fill="#5E8E3E"/>
<path d="M51.5465 39.3077L48.7152 47.8016C48.7152 47.8016 46.1851 46.4763 43.173 46.4763C38.6549 46.4763 38.4742 49.3077 38.4742 50.0306C38.4742 53.886 48.5947 55.392 48.5947 64.4884C48.5947 71.6571 44.0766 76.2354 37.9321 76.2354C30.5827 76.2354 26.8477 71.6571 26.8477 71.6571L28.8357 65.151C28.8357 65.151 32.6911 68.4643 35.9441 68.4643C38.0525 68.4643 38.9562 66.7775 38.9562 65.5727C38.9562 60.5125 30.6429 60.2715 30.6429 51.9583C30.6429 44.9703 35.6429 38.1631 45.8236 38.1631C49.6188 38.1631 51.5465 39.3077 51.5465 39.3077Z" fill="white"/>
</svg>
