<svg width="30" height="30" viewBox="0 0 30 30" fill="none" xmlns="http://www.w3.org/2000/svg">
<path d="M15 5.97656C11 5.97656 8.5 7.97656 7.5 11.9766C9 9.97656 10.75 9.22656 12.75 9.72656C13.8911 10.0118 14.7067 10.8397 15.6095 11.7561C17.0802 13.2488 18.7823 14.9766 22.5 14.9766C26.5 14.9766 29 12.9766 30 8.97656C28.5 10.9766 26.75 11.7266 24.75 11.2266C23.6089 10.9413 22.7933 10.1135 21.8905 9.19706C20.4198 7.70428 18.7177 5.97656 15 5.97656ZM7.5 14.9766C3.5 14.9766 1 16.9766 0 20.9766C1.5 18.9766 3.25 18.2266 5.25 18.7266C6.39111 19.0118 7.20672 19.8397 8.1095 20.7561C9.58017 22.2488 11.2823 23.9766 15 23.9766C19 23.9766 21.5 21.9766 22.5 17.9766C21 19.9766 19.25 20.7266 17.25 20.2266C16.1089 19.9413 15.2933 19.1135 14.3905 18.1971C12.9198 16.7043 11.2177 14.9766 7.5 14.9766Z" fill="url(#paint0_linear_32_255)"/>
<path d="M15 5.97656C11 5.97656 8.5 7.97656 7.5 11.9766C9 9.97656 10.75 9.22656 12.75 9.72656C13.8911 10.0118 14.7067 10.8397 15.6095 11.7561C17.0802 13.2488 18.7823 14.9766 22.5 14.9766C26.5 14.9766 29 12.9766 30 8.97656C28.5 10.9766 26.75 11.7266 24.75 11.2266C23.6089 10.9413 22.7933 10.1135 21.8905 9.19706C20.4198 7.70428 18.7177 5.97656 15 5.97656ZM7.5 14.9766C3.5 14.9766 1 16.9766 0 20.9766C1.5 18.9766 3.25 18.2266 5.25 18.7266C6.39111 19.0118 7.20672 19.8397 8.1095 20.7561C9.58017 22.2488 11.2823 23.9766 15 23.9766C19 23.9766 21.5 21.9766 22.5 17.9766C21 19.9766 19.25 20.7266 17.25 20.2266C16.1089 19.9413 15.2933 19.1135 14.3905 18.1971C12.9198 16.7043 11.2177 14.9766 7.5 14.9766Z" fill="url(#paint1_linear_32_255)"/>
<defs>
<linearGradient id="paint0_linear_32_255" x1="-0.833334" y1="11.7366" x2="25.0766" y2="26.6756" gradientUnits="userSpaceOnUse">
<stop stop-color="white"/>
<stop offset="1" stop-color="white"/>
</linearGradient>
<linearGradient id="paint1_linear_32_255" x1="-0.833334" y1="11.7366" x2="25.0766" y2="26.6756" gradientUnits="userSpaceOnUse">
<stop stop-color="white"/>
<stop offset="1" stop-color="white"/>
</linearGradient>
</defs>
</svg>
