<svg width="30" height="30" viewBox="0 0 30 30" fill="none" xmlns="http://www.w3.org/2000/svg">
<path fill-rule="evenodd" clip-rule="evenodd" d="M25.0379 14.3371C25.404 14.7032 25.404 15.2968 25.0379 15.6629L15.6629 25.0379C15.2968 25.404 14.7032 25.404 14.3371 25.0379C13.971 24.6718 13.971 24.0782 14.3371 23.7121L23.7121 14.3371C24.0782 13.971 24.6718 13.971 25.0379 14.3371Z" fill="white"/>
<path fill-rule="evenodd" clip-rule="evenodd" d="M23.1629 4.02459C23.529 4.3907 23.529 4.9843 23.1629 5.35041L5.35041 23.1629C4.9843 23.529 4.3907 23.529 4.02459 23.1629C3.65847 22.7968 3.65847 22.2032 4.02459 21.8371L21.8371 4.02459C22.2032 3.65847 22.7968 3.65847 23.1629 4.02459Z" fill="white"/>
</svg>
