<svg width="100" height="100" viewBox="0 0 100 100" fill="none" xmlns="http://www.w3.org/2000/svg">
<g clip-path="url(#clip0_402_26)">
<mask id="mask0_402_26" style="mask-type:alpha" maskUnits="userSpaceOnUse" x="0" y="0" width="100" height="100">
<path d="M70.6358 98.6739C72.2047 99.2852 73.9938 99.2459 75.5774 98.484L96.0856 88.6159C98.2405 87.5789 99.6109 85.3976 99.6109 83.005V16.0926C99.6109 13.6999 98.2405 11.5189 96.0856 10.482L75.5774 0.613484C73.4992 -0.386493 71.0669 -0.141561 69.2432 1.18445C68.9825 1.37387 68.7342 1.58536 68.5016 1.81844L29.2409 37.6366L12.1398 24.6555C10.5478 23.4471 8.32113 23.546 6.84261 24.891L1.35773 29.8803C-0.450791 31.5254 -0.452865 34.3706 1.35325 36.0184L16.1839 49.5486L1.35325 63.0789C-0.452865 64.7268 -0.450791 67.5719 1.35773 69.2171L6.84261 74.2062C8.32113 75.5513 10.5478 75.6501 12.1398 74.442L29.2409 61.4606L68.5016 97.2789C69.1226 97.9003 69.8517 98.3684 70.6358 98.6739ZM74.7233 26.9359L44.9335 49.5486L74.7233 72.1614V26.9359Z" fill="white"/>
</mask>
<g mask="url(#mask0_402_26)">
<path d="M96.1464 10.4975L75.6223 0.61542C73.2468 -0.528425 70.4075 -0.045926 68.5429 1.81851L1.35407 63.0791C-0.453141 64.727 -0.451063 67.5721 1.35855 69.2172L6.84675 74.2063C8.32621 75.5515 10.5543 75.6503 12.1471 74.4421L93.0581 13.0611C95.7725 11.0019 99.6713 12.938 99.6713 16.3451V16.1068C99.6713 13.7152 98.3013 11.535 96.1464 10.4975Z" fill="#0065A9"/>
<path d="M96.1464 88.5999L75.6223 98.482C73.2468 99.6256 70.4075 99.1431 68.5429 97.2789L1.35407 36.0183C-0.453141 34.3706 -0.451063 31.5253 1.35855 29.8802L6.84675 24.8909C8.32621 23.546 10.5543 23.4469 12.1471 24.6554L93.0581 86.0361C95.7725 88.0953 99.6713 86.1595 99.6713 82.7521V82.9906C99.6713 85.382 98.3013 87.5622 96.1464 88.5999Z" fill="#007ACC"/>
<path d="M75.5579 98.4901C73.1817 99.6329 70.3424 99.15 68.4778 97.2854C70.7751 99.5827 74.7035 97.9554 74.7035 94.7064V4.40354C74.7035 1.1545 70.7751 -0.472639 68.4778 1.82479C70.3424 -0.0398215 73.1817 -0.523002 75.5579 0.619834L96.0786 10.4883C98.235 11.5253 99.6062 13.7063 99.6062 16.0989V83.0115C99.6062 85.4041 98.235 87.585 96.0786 88.622L75.5579 98.4901Z" fill="#1F9CF0"/>
<path d="M70.6359 98.6739C72.2048 99.2848 73.9939 99.2459 75.5771 98.4841L96.0853 88.6156C98.2406 87.5786 99.611 85.3977 99.611 83.0051V16.0926C99.611 13.6999 98.2406 11.5189 96.0857 10.4819L75.5771 0.613487C73.4993 -0.386493 71.067 -0.141561 69.2429 1.18444C68.9826 1.37387 68.7343 1.58536 68.5013 1.81844L29.2408 37.6366L12.1397 24.6555C10.5478 23.447 8.32111 23.5461 6.84259 24.891L1.35773 29.8803C-0.450791 31.5254 -0.452865 34.3706 1.35325 36.0184L16.1839 49.5486L1.35325 63.079C-0.452865 64.7269 -0.450791 67.572 1.35773 69.2171L6.84259 74.2062C8.32111 75.5514 10.5478 75.6502 12.1397 74.442L29.2408 61.4607L68.5013 97.279C69.1223 97.9004 69.8519 98.3685 70.6359 98.6739ZM74.7234 26.9358L44.9336 49.5486L74.7234 72.1615V26.9358Z" fill="url(#paint0_linear_402_26)" fill-opacity="0.25"/>
</g>
</g>
<defs>
<linearGradient id="paint0_linear_402_26" x1="49.8055" y1="-3.8811e-07" x2="49.8055" y2="99.0973" gradientUnits="userSpaceOnUse">
<stop stop-color="white"/>
<stop offset="1" stop-color="white" stop-opacity="0"/>
</linearGradient>
<clipPath id="clip0_402_26">
<rect width="100" height="99.2188" fill="white"/>
</clipPath>
</defs>
</svg>
