<svg width="30" height="30" viewBox="0 0 30 30" fill="none" xmlns="http://www.w3.org/2000/svg">
<g clip-path="url(#clip0_32_263)">
<mask id="mask0_32_263" style="mask-type:alpha" maskUnits="userSpaceOnUse" x="0" y="0" width="30" height="30">
<path d="M21.1907 29.6022C21.6614 29.7855 22.1981 29.7738 22.6732 29.5452L28.8257 26.5848C29.4721 26.2737 29.8833 25.6193 29.8833 24.9015V4.82778C29.8833 4.10997 29.4721 3.45568 28.8257 3.14459L22.6732 0.184045C22.0498 -0.115948 21.3201 -0.0424682 20.773 0.355334C20.6947 0.412161 20.6203 0.475609 20.5505 0.545531L8.77226 11.291L3.64193 7.39664C3.16435 7.03412 2.49634 7.06381 2.05278 7.4673L0.407318 8.96409C-0.135237 9.45763 -0.135859 10.3112 0.405974 10.8055L4.85517 14.8646L0.405974 18.9237C-0.135859 19.418 -0.135237 20.2716 0.407318 20.7651L2.05278 22.2619C2.49634 22.6654 3.16435 22.695 3.64193 22.3326L8.77226 18.4382L20.5505 29.1837C20.7368 29.3701 20.9555 29.5105 21.1907 29.6022ZM22.417 8.08076L13.48 14.8646L22.417 21.6484V8.08076Z" fill="white"/>
</mask>
<g mask="url(#mask0_32_263)">
<path d="M28.8439 3.1492L22.6867 0.184577C21.974 -0.158576 21.1222 -0.0138266 20.5629 0.545504L0.406221 18.9237C-0.135942 19.418 -0.135319 20.2716 0.407565 20.7651L2.05403 22.2618C2.49786 22.6654 3.16628 22.695 3.64414 22.3326L27.9174 3.9183C28.7317 3.30053 29.9014 3.88134 29.9014 4.90349V4.832C29.9014 4.11451 29.4904 3.46045 28.8439 3.1492Z" fill="white"/>
<path d="M28.8439 26.58L22.6867 29.5446C21.974 29.8877 21.1222 29.7429 20.5629 29.1837L0.406221 10.8055C-0.135942 10.3111 -0.135319 9.45757 0.407565 8.96404L2.05403 7.46725C2.49786 7.06377 3.16628 7.03406 3.64414 7.39659L27.9174 25.8108C28.7317 26.4286 29.9014 25.8478 29.9014 24.8256V24.8972C29.9014 25.6146 29.4904 26.2686 28.8439 26.58Z" fill="white"/>
<path d="M22.6674 29.547C21.9545 29.8898 21.1027 29.745 20.5433 29.1856C21.2325 29.8748 22.411 29.3866 22.411 28.4119V1.32105C22.411 0.346338 21.2325 -0.141804 20.5433 0.547424C21.1027 -0.0119587 21.9545 -0.156913 22.6674 0.185938L28.8236 3.14648C29.4705 3.45757 29.8819 4.11187 29.8819 4.82967V24.9034C29.8819 25.6212 29.4705 26.2755 28.8236 26.5866L22.6674 29.547Z" fill="white"/>
<path d="M21.1908 29.602C21.6614 29.7853 22.1982 29.7736 22.6731 29.545L28.8256 26.5845C29.4722 26.2734 29.8833 25.6191 29.8833 24.9013V4.82759C29.8833 4.10978 29.4722 3.45549 28.8257 3.1444L22.6731 0.183863C22.0498 -0.116131 21.3201 -0.0426514 20.7729 0.35515C20.6948 0.411977 20.6203 0.475426 20.5504 0.545348L8.77225 11.2908L3.64192 7.39645C3.16435 7.03393 2.49633 7.06364 2.05278 7.46711L0.407318 8.9639C-0.135237 9.45744 -0.135859 10.311 0.405974 10.8053L4.85517 14.8644L0.405974 18.9235C-0.135859 19.4179 -0.135237 20.2714 0.407318 20.765L2.05278 22.2617C2.49633 22.6652 3.16435 22.6949 3.64192 22.3324L8.77225 18.438L20.5504 29.1835C20.7367 29.3699 20.9556 29.5104 21.1908 29.602ZM22.417 8.08057L13.4801 14.8644L22.417 21.6483V8.08057Z" fill="url(#paint0_linear_32_263)" fill-opacity="0.25"/>
</g>
</g>
<defs>
<linearGradient id="paint0_linear_32_263" x1="14.9417" y1="-0.000183222" x2="14.9417" y2="29.729" gradientUnits="userSpaceOnUse">
<stop stop-color="white"/>
<stop offset="1" stop-color="white" stop-opacity="0"/>
</linearGradient>
<clipPath id="clip0_32_263">
<rect width="30" height="29.7656" fill="white"/>
</clipPath>
</defs>
</svg>
