<svg width="100" height="100" viewBox="0 0 100 100" fill="none" xmlns="http://www.w3.org/2000/svg">
<g clip-path="url(#clip0_407_57)">
<path d="M7.07968 49.8049C7.07968 66.7171 16.9081 81.3325 31.1602 88.2585L10.7789 32.4163C8.40813 37.7301 7.07968 43.6106 7.07968 49.8049ZM78.6504 47.6488C78.6504 42.3683 76.7537 38.7114 75.1268 35.865C72.961 32.3455 70.9309 29.365 70.9309 25.8455C70.9309 21.9179 73.9098 18.2618 78.1057 18.2618C78.2951 18.2618 78.4748 18.2854 78.6593 18.2959C71.0577 11.3317 60.9301 7.07968 49.8065 7.07968C34.8797 7.07968 21.7472 14.7382 14.1073 26.3382C15.1098 26.3683 16.0545 26.3894 16.8569 26.3894C21.326 26.3894 28.2439 25.8472 28.2439 25.8472C30.5472 25.7114 30.8187 29.0943 28.5179 29.3667C28.5179 29.3667 26.2033 29.639 23.6276 29.774L39.187 76.0545L48.5374 48.0114L41.8805 29.7724C39.5797 29.6374 37.4 29.365 37.4 29.365C35.0976 29.2301 35.3675 25.7098 37.6699 25.8455C37.6699 25.8455 44.726 26.3878 48.9244 26.3878C53.3927 26.3878 60.3114 25.8455 60.3114 25.8455C62.6163 25.7098 62.887 29.0927 60.5854 29.365C60.5854 29.365 58.2659 29.6374 55.6951 29.7724L71.1358 75.7024L75.3976 61.461C77.2447 55.5512 78.6504 51.3065 78.6504 47.6488ZM50.5561 53.5423L37.7366 90.7935C41.5642 91.9187 45.6122 92.5341 49.8065 92.5341C54.7821 92.5341 59.5537 91.674 63.9951 90.1122C63.8805 89.9293 63.7764 89.735 63.6911 89.5236L50.5561 53.5423ZM87.2976 29.3057C87.4813 30.6667 87.5854 32.1276 87.5854 33.6992C87.5854 38.035 86.7756 42.9089 84.3366 49.0033L71.2854 86.7374C83.9878 79.3301 92.5317 65.5683 92.5317 49.8057C92.5325 42.3772 90.635 35.3919 87.2976 29.3057ZM49.8065 0C22.3439 0 0 22.3423 0 49.8049C0 77.2707 22.3439 99.6122 49.8065 99.6122C77.2683 99.6122 99.6154 77.2707 99.6154 49.8049C99.6146 22.3423 77.2683 0 49.8065 0ZM49.8065 97.3293C23.6033 97.3293 2.28374 76.0098 2.28374 49.8049C2.28374 23.6016 23.6024 2.28374 49.8065 2.28374C76.0089 2.28374 97.3268 23.6016 97.3268 49.8049C97.3268 76.0098 76.0089 97.3293 49.8065 97.3293Z" fill="#464342"/>
</g>
<defs>
<clipPath id="clip0_407_57">
<rect width="100" height="100" fill="white"/>
</clipPath>
</defs>
</svg>
