<svg width="30" height="30" viewBox="0 0 30 30" fill="none" xmlns="http://www.w3.org/2000/svg">
<g clip-path="url(#clip0_32_267)">
<path d="M2.1239 14.9415C2.1239 20.0151 5.07244 24.3998 9.34805 26.4776L3.23366 9.72488C2.52244 11.319 2.1239 13.0832 2.1239 14.9415ZM23.5951 14.2946C23.5951 12.7105 23.0261 11.6134 22.538 10.7595C21.8883 9.70366 21.2793 8.80951 21.2793 7.75366C21.2793 6.57537 22.1729 5.47854 23.4317 5.47854C23.4885 5.47854 23.5424 5.48561 23.5978 5.48878C21.3173 3.39951 18.279 2.1239 14.942 2.1239C10.4639 2.1239 6.52415 4.42146 4.2322 7.90146C4.53293 7.91049 4.81634 7.91683 5.05707 7.91683C6.3978 7.91683 8.47317 7.75415 8.47317 7.75415C9.16415 7.71341 9.24561 8.72829 8.55537 8.81C8.55537 8.81 7.86098 8.89171 7.08829 8.9322L11.7561 22.8163L14.5612 14.4034L12.5641 8.93171C11.8739 8.89122 11.22 8.80951 11.22 8.80951C10.5293 8.76902 10.6102 7.71293 11.301 7.75366C11.301 7.75366 13.4178 7.91634 14.6773 7.91634C16.0178 7.91634 18.0934 7.75366 18.0934 7.75366C18.7849 7.71293 18.8661 8.72781 18.1756 8.80951C18.1756 8.80951 17.4798 8.89122 16.7085 8.93171L21.3407 22.7107L22.6193 18.4383C23.1734 16.6654 23.5951 15.392 23.5951 14.2946ZM15.1668 16.0627L11.321 27.238C12.4693 27.5756 13.6837 27.7602 14.942 27.7602C16.4346 27.7602 17.8661 27.5022 19.1985 27.0337C19.1641 26.9788 19.1329 26.9205 19.1073 26.8571L15.1668 16.0627ZM26.1893 8.79171C26.2444 9.2 26.2756 9.63829 26.2756 10.1098C26.2756 11.4105 26.0327 12.8727 25.301 14.701L21.3856 26.0212C25.1963 23.799 27.7595 19.6705 27.7595 14.9417C27.7598 12.7132 27.1905 10.6176 26.1893 8.79171ZM14.942 0C6.70317 0 0 6.70268 0 14.9415C0 23.1812 6.70317 29.8837 14.942 29.8837C23.1805 29.8837 29.8846 23.1812 29.8846 14.9415C29.8844 6.70268 23.1805 0 14.942 0ZM14.942 29.1988C7.08098 29.1988 0.685122 22.8029 0.685122 14.9415C0.685122 7.08049 7.08073 0.685122 14.942 0.685122C22.8027 0.685122 29.198 7.08049 29.198 14.9415C29.198 22.8029 22.8027 29.1988 14.942 29.1988Z" fill="white"/>
</g>
<defs>
<clipPath id="clip0_32_267">
<rect width="30" height="30" fill="white"/>
</clipPath>
</defs>
</svg>
